<?xml version="1.0" encoding="utf-8"?>
<!-- Generator: Adobe Illustrator 27.0.0, SVG Export Plug-In . SVG Version: 6.00 Build 0)  -->
<svg version="1.1" id="레이어_1" xmlns="http://www.w3.org/2000/svg" xmlns:xlink="http://www.w3.org/1999/xlink" x="0px"
	 y="0px" viewBox="0 0 685 179" style="enable-background:new 0 0 685 179;" xml:space="preserve">
<g>
	<g>
		<path d="M39.9,156c-0.7,1.2-1.6,2-2.6,2.5s-2.1,0.7-3.2,0.7c-1.4,0-2.7-0.3-4-0.9c-1.2-0.6-2.2-1.4-2.9-2.5
			c-0.5-0.6-1.1-0.9-2-0.9c-0.8,0-2.3,0.4-4.4,1.3s-4.2,1.9-6.4,3c-2.1,1.1-4.1,2.2-5.8,3.3c-1.7,1.1-2.5,1.8-2.5,2.1
			c0,0.3,0.1,0.6,0.5,0.9c0.3,0.3,0.5,0.6,0.5,0.9c0,0.6-0.3,1-1,1.3c-0.7,0.3-1.2,0.4-1.6,0.4c-0.7,0-1.3-0.2-1.8-0.7
			c-0.5-0.5-0.7-1.2-0.7-2.1c0-0.8,0.3-1.7,0.8-2.6s1.5-2,2.8-3.1c1.3-1.1,3.1-2.3,5.4-3.5c2.3-1.2,5.1-2.4,8.5-3.6
			c2.5-0.9,4.3-1.7,5.5-2.5c1.2-0.8,2-1.7,2.7-2.7s1.2-2.2,1.6-3.6c0.4-1.4,1.2-3.1,2.3-5.1c0.9-1.8,2.2-4.1,3.9-7.1
			c1.7-3,3.5-6,5.4-9.2c1.9-3.1,3.8-6.1,5.6-8.8c1.8-2.7,3.4-4.8,4.6-6.2c0.7-0.8,1.1-1.3,1.1-1.6s-0.3-0.4-0.8-0.4
			s-1.3,0.1-2.2,0.3c-0.9,0.2-2,0.4-3.1,0.7c-1.1,0.2-2.3,0.5-3.5,0.7c-1.2,0.2-2.5,0.3-3.6,0.3c-1.5,0-3.1-0.4-4.7-1.1
			c-1.6-0.7-2.4-2.1-2.4-4.2c0-0.6,0.1-1.1,0.3-1.5s0.6-0.7,1-0.7c0.4,0,0.9,0.3,1.6,0.9c1.1,1,3.1,1.5,6,1.5c1.7,0,3.5-0.2,5.5-0.6
			s4-1,6-1.8c2-0.8,4-1.9,5.9-3.3c1.9-1.4,3.6-3,5-5c4.2-5.7,8.9-11.8,14-18.3c5.2-6.5,10.6-12.9,16.4-19.2s11.6-12.1,17.7-17.5
			c6.1-5.4,12.1-9.7,18-13.1c0.5-0.3,1.2-0.7,1.9-1.3c0.7-0.6,1.5-1.1,2.3-1.7c0.9-0.5,1.7-1,2.6-1.5c0.9-0.4,1.8-0.7,2.8-0.7
			c1.4,0,2.7,0.6,3.9,1.7c1.2,1.1,1.7,2.5,1.7,4.2c0,2.2-0.9,5-2.7,8.1c-1.8,3.2-4.2,6.5-7,10.1c-2.9,3.5-6,7-9.3,10.6
			c-3.4,3.5-6.6,6.8-9.8,9.8c-3.1,3-5.9,5.5-8.2,7.6s-3.9,3.4-4.6,4c-6.2,5.1-12.2,9.7-18.2,13.9c-6,4.2-12.3,8.2-19,12.1
			c-2.9,1.8-5.5,3.6-7.6,5.4c-2.1,1.9-4.1,4-6,6.3c-1.9,2.3-3.7,5-5.5,8c-1.8,3-3.9,6.4-6.2,10.3c-0.1,0.2-0.6,1.1-1.5,2.6
			c-0.9,1.5-1.9,3.3-2.9,5.2c-1.1,2-2,3.8-2.9,5.6s-1.3,2.9-1.3,3.5c3.5-1.4,8.3-2.8,14.5-4.3c6.2-1.5,13.1-2.9,20.6-4.1
			s15.5-2.2,23.8-3.1s16.2-1.2,23.9-1.2c7.9,0,15.1,0.5,21.6,1.6c6.5,1.1,11.5,2.9,15.2,5.6c2.6,1.9,4.3,3.4,5.2,4.5
			c0.9,1.1,1.3,2,1.3,2.6c0,0.5-0.3,0.7-0.9,0.7c-0.5,0-1-0.2-1.3-0.6c-2-1.9-4.4-3.4-7.3-4.8c-2.9-1.3-6.1-2.4-9.6-3.2
			c-3.5-0.8-7.3-1.4-11.4-1.8c-4.1-0.4-8.2-0.5-12.5-0.5c-5.8,0-11.7,0.3-17.6,0.8c-6,0.5-11.7,1.2-17.2,1.9
			c-5.5,0.7-10.6,1.6-15.2,2.5c-4.7,0.9-8.6,1.7-11.8,2.4c-0.2,0-0.9,0.2-2.1,0.5s-2.7,0.7-4.3,1.2s-3.5,0.9-5.5,1.5
			c-2,0.5-3.7,1.1-5.3,1.7s-2.9,1.1-3.9,1.6c-1,0.5-1.4,0.9-1.2,1.3c0.3,0.7,0.7,1.1,1.3,1.3c0.6,0.2,1.2,0.3,1.9,0.3
			c0.4,0,0.8,0,1.2-0.1c0.3-0.1,0.6-0.1,0.8-0.1L39.9,156z M86.6,81.7c4.4-3.2,9.1-6.8,14-10.7c4.9-3.9,9.7-8.1,14.4-12.6
			c4.7-4.5,9.1-9.2,13.2-14c4.1-4.8,7.8-9.7,10.9-14.7c1.2-1.9,1.7-3.2,1.7-4.1c0-0.7-0.4-1-1.2-1s-1.9,0.2-3.2,0.7
			c-1.3,0.4-2.9,1-4.7,1.8c-3.7,1.6-8,4.3-12.7,8.2c-4.7,3.9-9.6,8.4-14.5,13.4c-4.9,5-9.8,10.2-14.5,15.6
			c-4.7,5.4-8.9,10.4-12.6,15c-3.7,4.6-6.6,8.3-8.8,11.4c-2.2,3-3.3,4.6-3.2,4.7L86.6,81.7z"/>
		<path d="M84.1,124.2c-2.8,2.2-5.8,3.4-8.8,3.4c-1,0-2-0.1-3.1-0.4c-1.1-0.2-2.1-0.6-3.1-1.2c-0.9-0.5-1.7-1.3-2.4-2.1
			c-0.7-0.9-1-2-1-3.2c0-1.5,0.4-3.1,1.3-4.8c0.9-1.7,2-3.3,3.3-4.8c1.3-1.5,2.8-2.7,4.3-3.7c1.5-1,2.9-1.5,4.1-1.5
			c1.4,0,2.6,0.7,3.4,2.2c0.8,1.5,1.3,2.9,1.3,4.3c0,1.2-0.4,2.3-1.2,3.3c-0.4,0.4-0.8,0.9-1.5,1.4s-1.3,1.1-2,1.6
			c-0.7,0.5-1.4,1-2.1,1.5s-1.2,0.9-1.5,1.3c-0.6,0.6-0.9,1.1-0.9,1.6c0,0.5,0.4,0.7,1.2,0.7c1.1,0,2.3-0.5,3.7-1.5
			c2.6-1.2,5-2.6,7.2-4.3c2.2-1.7,4.4-3.4,6.8-5.2c0.8-0.6,1.7-0.9,2.7-0.9c1.1,0,1.6,0.3,1.6,1c0,0.4-0.2,0.9-0.7,1.5
			c-0.4,0.6-1.2,1.3-2.4,2.1c-1.8,1.4-3.5,2.6-5.1,3.8C87.5,121.6,85.8,122.9,84.1,124.2z M72,116.6c0,0.7,0.3,1,0.8,1
			c0.4,0,1-0.2,1.7-0.5c0.7-0.3,1.4-0.8,2-1.3s1.2-1.1,1.6-1.8c0.4-0.6,0.7-1.2,0.7-1.8c0-1-0.4-1.5-1.2-1.5c-0.4,0-1,0.2-1.6,0.7
			c-0.6,0.4-1.2,1-1.8,1.6c-0.6,0.6-1.1,1.3-1.5,2C72.2,115.7,72,116.2,72,116.6z"/>
		<path d="M108.2,124.2c-2.8,2.2-5.8,3.4-8.8,3.4c-1,0-2-0.1-3.1-0.4c-1.1-0.2-2.1-0.6-3.1-1.2c-0.9-0.5-1.7-1.3-2.4-2.1
			c-0.7-0.9-1-2-1-3.2c0-1.5,0.4-3.1,1.3-4.8c0.9-1.7,2-3.3,3.3-4.8c1.3-1.5,2.8-2.7,4.3-3.7c1.5-1,2.9-1.5,4.1-1.5
			c1.4,0,2.6,0.7,3.4,2.2c0.8,1.5,1.3,2.9,1.3,4.3c0,1.2-0.4,2.3-1.2,3.3c-0.4,0.4-0.8,0.9-1.5,1.4s-1.3,1.1-2,1.6
			c-0.7,0.5-1.4,1-2.1,1.5s-1.2,0.9-1.5,1.3c-0.6,0.6-0.9,1.1-0.9,1.6c0,0.5,0.4,0.7,1.2,0.7c1.1,0,2.3-0.5,3.7-1.5
			c2.6-1.2,5-2.6,7.2-4.3c2.2-1.7,4.4-3.4,6.8-5.2c0.8-0.6,1.7-0.9,2.7-0.9c1.1,0,1.6,0.3,1.6,1c0,0.4-0.2,0.9-0.7,1.5
			c-0.4,0.6-1.2,1.3-2.4,2.1c-1.8,1.4-3.5,2.6-5.1,3.8C111.6,121.6,109.9,122.9,108.2,124.2z M96,116.6c0,0.7,0.3,1,0.8,1
			c0.4,0,1-0.2,1.7-0.5c0.7-0.3,1.4-0.8,2-1.3s1.2-1.1,1.6-1.8c0.4-0.6,0.7-1.2,0.7-1.8c0-1-0.4-1.5-1.2-1.5c-0.4,0-1,0.2-1.6,0.7
			c-0.6,0.4-1.2,1-1.8,1.6c-0.6,0.6-1.1,1.3-1.5,2C96.3,115.7,96,116.2,96,116.6z"/>
		<path d="M155.9,159.5c-0.6,0-0.9-0.5-0.9-1.5c0-0.8,0.2-1.9,0.6-3.2c0.4-1.4,1.1-3,2.1-5l24.4-37.9l-27.8,8.2
			c-1.7,1-3.4,1.5-5.1,1.5c-1.5,0-2.8-0.3-3.8-0.9c-1-0.6-1.5-1.3-1.5-2.1c0-0.8,0.7-1.4,2.1-1.8c4.2-1.2,8.3-2.4,12.4-3.6
			c4.1-1.2,8.2-2.4,12.4-3.4c4.1-1.2,7.3-2.2,9.7-2.9c2.4-0.8,4.4-1.8,6-3s3.2-2.9,4.7-5.1c1.5-2.2,3.5-5.2,5.9-9.1L222.7,50
			c0.7-1.2,1.4-2,2.2-2.4c0.8-0.4,1.5-0.7,2.2-0.7c0.8,0,1.5,0.2,2,0.7c0.5,0.5,0.8,1,0.8,1.6c0,0.4-0.1,0.8-0.4,1.2
			c-0.8,0.9-1.4,2-1.8,3.2c-0.4,1.3-0.9,2.5-1.3,3.7c-0.5,1.2-1.2,2.2-2,3c-0.9,0.8-2.1,1.3-3.7,1.4l-26.9,41.1
			c0.2,0.2,0.6,0.3,1.2,0.3c1.3,0,3.7-0.3,7.1-0.9c3.4-0.6,7.1-1.2,11.2-2s8.2-1.4,12.4-2.1s7.8-1,10.9-1.1h2h3.2
			c2.3,0,4.5-0.2,6.5-0.6c2-0.4,3.5-1.4,4.5-3.1c3.8-6.8,7.7-13.5,11.6-20.2c3.9-6.7,7.3-13.7,10.4-21.1c0.4-0.8,0.7-1.7,0.9-2.8
			c0.3-1.1,0.9-1.6,1.7-1.6c0.6,0,1.2,0.2,1.9,0.7s0.9,1,0.9,1.8c0,0.6-0.2,1.2-0.5,1.8s-0.6,1.2-0.9,1.8l-21.2,39.2
			c-0.5,0.9-0.8,1.6-0.8,2.2c0,0.7,0.2,1.3,0.7,1.8c0.5,0.5,1,0.9,1.6,1.4c0.6,0.4,1.1,0.9,1.6,1.2c0.5,0.4,0.7,0.8,0.7,1.2
			c0,0.5-0.2,0.9-0.7,1.2s-0.9,0.4-1.3,0.4c-0.7,0-1.4-0.2-2.1-0.7c-0.7-0.5-1.5-0.7-2.3-0.7c-0.6,0-1.3,0.2-1.9,0.7
			s-1.4,1.3-2.2,2.6c-1.4,2.2-3.3,5-5.7,8.6c-2.4,3.6-4.9,7.5-7.6,11.7c-2.7,4.2-5.5,8.6-8.4,13.1s-5.5,8.8-7.9,13
			c-2.4,4.2-4.5,8-6.3,11.4s-3,6.2-3.6,8.3c-0.7,2.4-1.6,4-2.7,5c-1.1,1-2,1.5-2.7,1.5c-0.9,0-1.3-0.4-1.3-1.3c0-0.6,0.1-1,0.3-1.3
			c2.9-6.5,5.6-12,7.9-16.7s4.8-9.1,7.3-13.3c2.5-4.2,5.2-8.5,8.1-12.9s6.4-9.6,10.4-15.6c2.9-4.2,4.9-7.4,6.3-9.5
			c1.3-2.1,2-3.6,2-4.3s-0.7-1.2-2.1-1.2c-0.4,0-1,0-1.7,0.1s-1.5,0.1-2.4,0.2c-1.5,0.2-3.8,0.4-6.9,0.7c-3.1,0.2-6.5,0.6-10.1,0.9
			c-3.7,0.4-7.6,0.9-11.6,1.5c-4.1,0.6-7.8,1.3-11.4,2.1c-3.5,0.8-6.6,1.8-9.1,2.8c-2.6,1-4.3,2.2-5.1,3.4c-0.4,0.6-1.3,2.1-2.9,4.6
			s-3.5,5.5-5.7,9c-2.2,3.5-4.6,7.1-7,11c-2.4,3.9-4.7,7.4-6.8,10.6s-4.5,7-7.3,11.3C156.5,159.3,156.2,159.5,155.9,159.5z"/>
		<path d="M262,135c-0.5,0.8-1.5,2-2.7,3.5c-1.3,1.6-2.7,3.1-4.2,4.6c-1.5,1.5-3.1,2.8-4.6,4c-1.6,1.1-2.9,1.7-3.8,1.7
			c-0.7,0-1.3-0.3-1.8-0.9c-0.5-0.6-0.7-1.3-0.7-2.1c0-1,0.4-2.1,1.2-3.2c2.1-3.1,4.4-5.8,6.9-8c2.6-2.2,5.1-4.4,7.7-6.7
			c2.6-2.4,4.6-4.6,6.2-6.3c1.6-1.8,2.8-3.8,3.8-6c-0.6,0.4-1.5,0.9-2.5,1.5c-1,0.6-2.1,1.2-3.3,1.8c-1.2,0.6-2.3,1.1-3.4,1.5
			c-1.1,0.4-2,0.7-2.7,0.7c-1.5,0-2.6-0.5-3.5-1.4c-0.9-0.9-1.3-2.1-1.3-3.5c0-1.9,0.8-3.7,2.3-5.4c0.5-0.4,0.9-0.8,1.4-1.2
			s0.8-0.7,1.1-0.9c0.8-0.7,1.5-1.2,1.9-1.7s1.2-0.7,2.1-0.7c0.4,0,0.7,0.1,1,0.2s0.5,0.4,0.5,0.9c0,0.8-0.4,1.7-1.1,2.8
			s-1.4,1.7-1.8,1.9c-0.7,0.4-1.4,0.9-2,1.6s-1,1.3-1.2,1.9c-0.2,0.6-0.2,0.9-0.1,1.1s0.3,0.2,0.5,0.2c0.9,0,2.2-0.4,3.8-1.1
			c1.6-0.7,3.3-1.6,5-2.6c1.7-1,3.3-2.1,4.7-3.2c1.5-1.1,2.6-2.1,3.3-3c0.2-0.2,0.4-0.4,0.5-0.6c0.2-0.2,0.4-0.3,0.7-0.3
			c0.4,0,0.9,0.2,1.3,0.7c0.4,0.5,0.6,0.9,0.6,1.3c0,0.3-0.2,0.8-0.7,1.5c-0.5,0.6-1,1.4-1.5,2.4c-0.6,1-1.1,2-1.5,3
			c-0.4,0.9-0.8,1.8-1.2,2.7c-0.5,0.9-0.9,1.8-1.3,2.7c0.5-0.3,1.2-0.6,1.9-1c0.8-0.4,1.4-0.7,1.8-0.9c1-0.5,2.7-1.3,5.1-2.3
			s5.1-2.2,8-3.3c2.9-1.1,6-2.1,9.2-2.9s6.1-1.2,8.7-1.2c0.5,0,1.2,0.1,2.1,0.2s1.8,0.4,2.6,0.7c0.9,0.3,1.6,0.7,2.3,1.2
			c0.7,0.5,1,1.2,1,2c0,0.6-0.4,0.9-1.2,0.9c-1-0.1-1.9-0.3-2.8-0.6c-0.9-0.3-1.9-0.5-2.9-0.6c-0.5,0-0.9,0-1.2-0.1
			c-0.4-0.1-0.7-0.1-1.1-0.1c-5.3,0-10.4,1.1-15.5,3.2s-9.9,4.4-14.6,6.8c-0.5,0.2-1.4,0.6-2.7,1.3c-1.4,0.7-2.7,1.3-3.9,1.8
			C266.3,128.7,264.3,131.8,262,135z M259.4,132c-1.4,1-2.8,2.1-4.1,3.2c-1.3,1.2-2.5,2.3-3.6,3.4s-2,2.2-2.7,3.2
			c-0.7,1-1.2,1.7-1.5,2.1c0.7-0.2,1.7-0.8,2.9-1.7c1.2-0.9,2.4-2,3.6-3.2c1.2-1.2,2.3-2.5,3.3-3.7C258.4,134,259.1,132.9,259.4,132
			z"/>
		<path d="M326.1,124.2c-2.9,2.2-5.8,3.4-8.8,3.4c-1,0-2-0.1-3.1-0.4c-1.1-0.2-2.1-0.6-3.1-1.2c-0.9-0.5-1.7-1.3-2.4-2.1
			c-0.7-0.9-1-2-1-3.2c0-1.5,0.5-3.1,1.3-4.8c0.9-1.7,2-3.3,3.3-4.8c1.3-1.5,2.8-2.7,4.3-3.7c1.5-1,2.9-1.5,4.1-1.5
			c1.4,0,2.6,0.7,3.4,2.2s1.3,2.9,1.3,4.3c0,1.2-0.4,2.3-1.2,3.3c-0.4,0.4-0.9,0.9-1.5,1.4s-1.3,1.1-2,1.6c-0.7,0.5-1.4,1-2.1,1.5
			s-1.2,0.9-1.5,1.3c-0.6,0.6-0.9,1.1-0.9,1.6c0,0.5,0.4,0.7,1.2,0.7c1.1,0,2.3-0.5,3.7-1.5c2.6-1.2,5-2.6,7.1-4.3
			c2.2-1.7,4.4-3.4,6.8-5.2c0.8-0.6,1.7-0.9,2.7-0.9c1.1,0,1.6,0.3,1.6,1c0,0.4-0.2,0.9-0.7,1.5c-0.5,0.6-1.2,1.3-2.4,2.1
			c-1.8,1.4-3.5,2.6-5.1,3.8C329.4,121.6,327.8,122.9,326.1,124.2z M313.9,116.6c0,0.7,0.3,1,0.8,1c0.4,0,1-0.2,1.7-0.5
			c0.7-0.3,1.4-0.8,2-1.3s1.2-1.1,1.6-1.8s0.7-1.2,0.7-1.8c0-1-0.4-1.5-1.2-1.5c-0.5,0-1,0.2-1.6,0.7s-1.2,1-1.8,1.6
			c-0.6,0.6-1.1,1.3-1.5,2C314.1,115.7,313.9,116.2,313.9,116.6z"/>
		<path d="M353.9,116.8c-2,0.7-3.8,1.6-5.2,2.7c-1.4,1.1-2.7,2.2-3.9,3.2c-1.2,1-2.3,1.9-3.5,2.7c-1.2,0.7-2.5,1.1-3.9,1.1
			c-1.4,0-2.8-0.4-4.1-1.1s-1.9-2.1-1.9-3.9c0-1.1,0.3-2.3,0.8-3.7c0.7-2,1.6-3.8,2.7-5.4s2.1-3.3,3.1-4.9c0.8-1.3,1.8-1.9,3.1-1.9
			c1.1,0.2,1.7,0.7,2,1.5c0.3,0.8,0.7,1.1,1.2,0.9c0.4-0.2,0.9-0.6,1.2-1.1c0.4-0.5,0.8-0.9,1.3-1.1c0.9-0.2,1.6-0.3,2-0.3
			c0.5,0,1,0.2,1.5,0.4c0.5,0.3,0.9,0.8,1.1,1.6c0.4,1.3,0.7,2.4,0.7,3.4c0,1,0.5,1.5,1.4,1.5c0.8-0.1,1.5-0.2,2.1-0.2
			c0.6-0.1,1.2-0.1,1.7-0.1c1.3,0,2,0.4,2.1,1.3c0.2,1-0.2,1.7-1.2,2C357.4,115.6,355.9,116.1,353.9,116.8z M346.1,115.3
			c0-1-0.2-1.6-0.6-1.9s-0.9-0.4-1.4-0.4s-1-0.2-1.5-0.3s-0.7-0.6-0.8-1.4c0-0.1-0.1-0.2-0.3-0.2s-0.4,0-0.6,0
			c-1,1.6-1.9,3.1-2.7,4.4c-0.9,1.3-1.7,2.7-2.5,4.1c-0.3,0.6-0.4,1-0.4,1.3c0,0.6,0.5,0.9,1.6,0.9c2-0.1,3.8-0.7,5.1-1.9
			c1.4-1.2,2.7-2.5,3.9-4L346.1,115.3z"/>
		<path d="M393.3,115c-1.2,1-2.4,2.3-3.5,3.9c-1.1,1.6-2.9,3.1-5.3,4.3c-0.7,0.4-1.5,0.6-2.4,0.6c-1.3,0-2.5-0.7-3.3-2.1
			c-0.8-1.4-1.5-2.7-2-3.9c-0.5-1.2-1-2.3-1.4-3.2c-0.4-0.9-0.9-1.6-1.4-2.1s-1.2-0.8-2-0.8c-0.5,0-1.1,0.2-1.7,0.4
			c-2,0.8-3.9,1.8-5.7,3s-3.5,2.5-5.3,3.9c-0.4,0.3-0.6,0.6-0.9,0.9c-0.2,0.3-0.5,0.6-0.7,0.9c-0.4,0.4-0.9,0.6-1.5,0.6
			c-0.4,0-0.9-0.2-1.3-0.6s-0.6-0.9-0.6-1.5c0-0.5,0.3-1.4,0.9-2.6s1.4-2.6,2.2-4.1c0.9-1.5,1.7-2.8,2.5-4c0.8-1.2,1.4-2.1,1.7-2.6
			c0.3-0.2,0.5-0.4,0.8-0.7s0.6-0.4,0.9-0.4c0.4,0,0.8,0.2,1.1,0.5c0.3,0.3,0.4,0.7,0.4,1.1s-0.1,0.8-0.2,1.2s-0.2,0.8-0.3,1.2
			c-0.2,0.5-0.3,0.8-0.5,1c-0.1,0.2-0.2,0.3-0.2,0.5c0.4,0.3,0.7,0.4,0.9,0.4c0.2,0,0.4-0.1,0.5-0.3c0.4-0.3,1-0.6,1.8-1
			c0.9-0.4,1.7-0.8,2.7-1.2c0.9-0.4,1.9-0.8,2.7-1.1c0.9-0.3,1.6-0.4,2.1-0.4c1.4,0,2.5,0.9,3.2,2.8c0.4,1.2,0.9,2.4,1.5,3.6
			c0.5,1.2,1.2,2.4,1.9,3.4c0.7,1.1,1.5,1.6,2.3,1.6c0.4,0,1-0.2,1.9-0.7c0.9-0.5,1.9-1.3,3-2.3c1.1-1.1,2.1-1.9,3-2.5
			c0.4-0.3,0.9-0.5,1.3-0.6s0.8-0.2,1.1-0.2c1,0,1.5,0.3,1.5,1C395,113.4,394.4,114.1,393.3,115z"/>
		<path d="M390.2,113.2c0.7-0.7,1.3-1.4,1.8-2.1c0.5-0.7,1-1.3,1.5-1.9c0.5-0.6,1-1.1,1.7-1.4c0.6-0.3,1.4-0.5,2.4-0.5
			c1.6,0,2.9,0.4,3.9,1.1c1,0.7,1.5,2.1,1.5,4c0,1-0.1,1.9-0.3,2.8s-0.3,1.6-0.3,2.1c0.4,0.2,0.6,0.3,0.7,0.3c0.4,0,0.9-0.4,1.6-1.2
			c2-1.8,3.7-3,4.9-3.7c1.2-0.7,2.1-1.1,2.7-1.1c0.4,0,0.7,0.2,0.7,0.7c0,0.8-0.7,1.7-2,2.6c-2.9,2.2-5.4,4.6-7.7,7.1
			c-2.3,2.5-4,5.6-5.1,9.3c-0.4,1.3-1,3-1.8,5.1c-0.9,2.1-1.9,4.4-3,6.9s-2.4,5-3.8,7.6s-2.8,4.9-4.3,7c-1.5,2.1-3,3.8-4.5,5.1
			s-2.9,2-4.3,2c-1,0-1.9-0.3-2.7-0.8c-0.8-0.5-1.2-1.6-1.2-3.1c0-2.1,0.8-4.6,2.4-7.6s3.5-6.1,5.6-9.2c2.1-3.1,4.3-6.1,6.5-8.8
			c2.2-2.7,3.9-4.8,5.1-6.2c1.1-1.2,2.2-2.3,3.5-3.4c1.2-1.1,1.9-2.6,1.9-4.6l-3.7,2.8c-1.5,1.5-2.7,2.2-3.6,2.2
			c-0.9,0-1.9-0.5-2.9-1.5s-1.6-2-1.6-3.1c0-1.4,0.5-2.9,1.5-4.5C388.3,115.6,389.3,114.3,390.2,113.2z M394.7,132.9
			c0.4-1,0.5-1.5,0.5-1.6c-0.3,0-0.9,0.6-2,1.8s-2.3,2.8-3.7,4.8c-1.4,2-2.8,4.1-4.3,6.5s-2.9,4.6-4.2,6.8c-1.3,2.1-2.4,4.1-3.2,5.7
			c-0.9,1.7-1.3,2.8-1.3,3.4c1.2-0.2,2.8-1.4,4.5-3.7s3.6-4.9,5.3-7.9s3.4-5.9,4.9-8.8C392.9,136.9,394,134.6,394.7,132.9z
			 M390.3,122.2c0.7,0,1.6-0.4,2.6-1.3c1-0.8,2-1.8,2.9-2.9c0.9-1.1,1.7-2.2,2.4-3.2c0.7-1,1-1.7,1-2c-0.4-0.6-0.9-0.9-1.5-0.9
			c-0.4,0-1.1,0.4-2,1.3c-0.9,0.8-1.9,1.8-2.8,2.9c-0.9,1.1-1.7,2.1-2.4,3.1c-0.7,0.9-1,1.6-1,1.9
			C389.4,121.8,389.7,122.2,390.3,122.2z"/>
		<path d="M470.2,120.9c3.1,0.2,5.6,0.4,7.5,0.7c1.9,0.3,3.5,0.4,4.7,0.4c1.3,0,2.5-0.2,3.4-0.7c0.9-0.5,2-1.3,3.1-2.6
			c1.2-1.3,2.6-3,4.2-5.3c1.6-2.2,3.9-5.1,6.8-8.7c2.5-3.1,5.4-6.8,8.6-10.9s6.4-8.2,9.4-12.2c3-4,5.7-7.6,8-10.8
			c2.3-3.2,3.8-5.4,4.4-6.6c1.2-2.5,2.5-4.4,4.1-5.6c1.6-1.2,2.9-1.8,4.1-1.8c1.2,0,1.9,0.7,1.9,2.1c0,1.1-0.5,2.4-1.3,4l-2.3,3.1
			c-0.9,0.8-2.4,2.4-4.6,4.8s-4.7,5.4-7.6,8.8c-2.9,3.4-6,7.2-9.3,11.2c-3.3,4.1-6.5,8.1-9.5,12.1c-3.1,4-5.9,7.8-8.5,11.4
			c-2.6,3.6-4.6,6.5-6,8.8c0.4,0.4,0.9,0.6,1.6,0.6s1.4-0.1,2.1-0.4c0.7-0.3,1.3-0.7,1.8-1.2c6.1-5.7,13.1-11.5,20.9-17.4
			c7.8-5.9,15.8-11.7,24.2-17.2s16.7-10.8,25-15.7c8.4-4.9,16.2-9.1,23.7-12.6c2.8-1.3,5-1.9,6.4-1.9c1.8,0,2.7,0.8,2.7,2.5
			c0,0.9-0.2,1.9-0.7,3c-0.5,1.1-1,2.2-1.6,3.2s-1.2,1.8-1.9,2.3s-1.1,0.8-1.5,0.6c-0.8-0.4-1.2-1.1-1.2-2.1c0-0.4,0-0.8,0.1-1.2
			s0.1-0.7,0.1-1c0-0.4-0.2-0.6-0.7-0.6c-0.2,0-0.4,0-0.7,0.1c-0.3,0.1-0.6,0.2-0.9,0.4c-3.3,1.3-7.3,3.2-12,5.8
			c-4.7,2.6-9.8,5.6-15.2,8.9c-5.4,3.3-11,6.9-16.7,10.7c-5.7,3.8-11.2,7.6-16.4,11.3s-10,7.2-14.4,10.6c-4.4,3.3-8,6.2-10.8,8.5
			c-1.5,1.4-2.7,2.4-3.5,3s-1.2,1.2-1.2,1.7s0.7,0.8,2.1,1s3.5,0.6,6.4,1.2c2.9,0.6,6.5,1.5,10.9,2.9c4.4,1.3,9.6,3.3,15.6,5.9
			c7,3.1,12.8,6.1,17.3,8.9c4.5,2.8,8,5.3,10.5,7.6c2.5,2.2,4.3,4.3,5.2,6c0.9,1.8,1.4,3.2,1.4,4.4c0,0.9-0.2,1.5-0.6,2
			c-0.4,0.4-0.9,0.7-1.4,0.7c-0.8,0-1.4-0.4-1.7-1.3c-1.6-3.3-4.2-6.5-7.9-9.5s-7.8-5.8-12.5-8.3c-4.7-2.6-9.6-4.9-14.8-7
			s-10.1-3.9-14.8-5.4s-8.7-2.6-12.3-3.4c-3.6-0.8-6.1-1.2-7.5-1.2c-0.6,0-1.9,0.7-3.7,2.2c-1.8,1.5-4,3.4-6.5,5.6
			c-2.5,2.3-5.1,4.9-7.9,7.6s-5.3,5.5-7.8,8c-2.4,2.5-4.5,4.9-6.2,6.9c-1.7,2.1-2.8,3.5-3.1,4.3c-0.5,1-1.4,1.5-2.7,1.5
			c-1.6,0-3.6-0.7-5.9-2c-2.4-1.3-4.7-2.9-7-4.8c-2.3-1.9-4.3-3.8-6.1-5.7c-1.8-1.9-2.9-3.6-3.2-4.8c-0.5-1.7-0.7-3.2-0.7-4.5
			c0-2.1,0.4-4.1,1.1-6.2s1.8-4.1,3.1-5.9c1.3-1.8,2.8-3.4,4.5-4.8c1.7-1.4,3.6-2.5,5.7-3.3c3.3-1.3,6.6-2,9.8-2.3
			C463.5,121,466.8,120.9,470.2,120.9z M441.4,141.7c-0.3,0.9-0.4,1.8-0.4,2.6c0,1.9,0.5,3.4,1.6,4.7s2.4,2.4,4,3.4s3.3,2,5.1,3
			s3.5,2.1,5,3.4c0.7,0,1.6-0.6,2.6-1.8c1-1.2,2.2-2.6,3.4-4.4c1.2-1.8,2.6-3.6,3.9-5.6s2.8-3.8,4.2-5.4c0.3-0.3,1-1.2,2.3-2.6
			s2.6-3.1,3.9-4.8s2.6-3.4,3.6-4.9c1-1.5,1.4-2.4,1-2.6c-0.5-0.5-1.2-0.8-2.4-0.9c-1.2-0.1-2.5-0.2-3.9-0.2c-1.1,0-2.1,0-3.1,0.1
			c-1,0.1-1.9,0.1-2.7,0.1c-3.2,0-6.3,0.1-9.2,0.2s-5.6,0.7-8.1,1.8c-2.5,1-4.6,2.6-6.5,4.8C443.9,134.6,442.4,137.7,441.4,141.7z
			 M489.1,128.2c-0.3-0.3-0.5-0.4-0.8-0.4c-0.5,0-1.3,0.6-2.3,1.8l-4,5.4c1-0.9,2.1-1.9,3.3-2.9c1.2-1.1,2.6-2.2,4.1-3.5
			L489.1,128.2z"/>
		<path d="M554,119.6c-1.2,0.7-2.5,1-3.6,1c-1.6,0-3.1-1-4.5-2.9c-0.6-0.7-1.2-1-1.6-1c-0.3,0-0.5,0.1-0.7,0.2s-0.5,0.2-0.9,0.4
			c-1,0.7-2,1.4-3.1,2.1c-1.1,0.7-2.1,1.3-3.2,1.8c-0.6,0.3-1.2,0.5-1.7,0.6s-1,0.1-1.4,0.1c-1.6,0-2.8-0.7-3.7-2
			c-0.8-1.3-1.3-2.8-1.3-4.5c0-2,0.5-3.9,1.5-5.9c0.6-0.6,1.5-1.3,2.5-2.3s2-1.4,2.7-1.4c0.4,0,0.9,0.2,1.3,0.7s0.6,0.9,0.6,1.4
			c0,0.7-0.2,1.3-0.7,1.9c-0.5,0.6-0.9,1.2-1.3,1.8c-0.5,0.6-1,1.2-1.7,1.8c-0.7,0.6-1,1.3-1,2c0,0.5,0.2,0.9,0.5,1.2
			c0.3,0.3,0.8,0.4,1.2,0.4c0.6,0,1.6-0.3,3-1c1.4-0.7,2.8-1.5,4.4-2.4s3-1.9,4.3-2.8s2.2-1.6,2.7-2c0.4-0.3,1-0.8,2-1.5
			c1-0.7,1.7-1,2.1-1c0.4,0,0.8,0.2,1.2,0.6s0.7,0.8,0.7,1.3c0,0.3-0.2,0.7-0.5,1.3c-0.5,1-1.1,1.7-1.9,2.2
			c-0.8,0.5-1.6,1.1-2.3,1.9c-0.2,0.4-0.3,0.7-0.3,0.9c0,1,0.5,1.5,1.5,1.5h0.4c1.9-0.5,3.2-1.1,4-1.8c0.8-0.7,1.8-1.4,2.9-2.1
			c0.6-0.4,1.2-0.6,1.9-0.6c0.8,0,1.2,0.3,1.2,1c0,0.4-0.3,0.9-0.9,1.7c-0.6,0.7-1.4,1.5-2.2,2.2c-0.8,0.7-1.7,1.4-2.5,2
			S554.3,119.5,554,119.6z"/>
		<path d="M581.4,81.9c0.3-0.3,0.7-0.7,0.9-1.2s0.6-0.8,1-1c0.6-0.5,1.2-0.7,1.7-0.7c0.4,0,0.9,0.2,1.4,0.6c0.5,0.4,0.7,0.9,0.7,1.5
			c0,0.4-0.1,0.7-0.4,1c-0.3,0.3-0.5,0.6-0.8,0.9c-3.1,3.1-5.9,6.5-8.3,10.2c-2.4,3.7-4.9,7.3-7.6,10.8c-0.4,0.4-0.7,0.8-1.1,1.2
			s-0.5,0.9-0.4,1.2c0.1,0.3,0.4,0.4,0.8,0.4c0.3,0,0.5-0.1,0.9-0.2c0.3-0.1,0.6-0.2,0.7-0.2c0.4-0.1,0.8-0.2,1.5-0.2
			c1.5,0,2.3,0.8,2.3,2.3c0,1.4-0.3,2.6-0.8,3.5c-0.5,1-1.2,2-1.9,2.9c-0.5,0.5-0.9,1-1.4,1.5c-0.5,0.5-1,1-1.4,1.5
			c-0.2,1.7,0.3,2.5,1.5,2.5c0.7,0,1.6-0.3,2.7-1c1.1-0.7,2.1-1.5,3.1-2.4c1-0.9,2-1.8,2.8-2.7c0.8-0.9,1.5-1.5,1.8-1.8
			c0.9-0.7,1.7-1,2.4-1c0.8,0,1.2,0.3,1.2,1c0,0.8-0.8,2-2.4,3.7l-5.6,6.2c-0.8,1.1-1.7,1.8-2.6,2.3c-0.9,0.4-1.9,0.7-2.9,0.7
			c-1.5,0-2.9-0.5-4.1-1.5s-2-2.3-2.5-4c-0.2-0.4-0.5-1.1-0.8-2c-0.4-0.9-0.8-1.4-1.2-1.4c-0.5,0-0.9,0.3-1.3,1
			c-1,1.2-2.2,2.6-3.7,4.2c-1.5,1.6-2.7,3.1-3.7,4.3c-0.3,0.4-0.5,0.8-0.8,1.2c-0.3,0.4-0.7,0.6-1.2,0.6c-0.8,0-1.5-0.2-2.2-0.5
			c-0.7-0.3-1-0.9-1-1.7c0-0.4,0.3-1,0.8-1.8c2.4-3.3,4.9-6.9,7.5-10.6c2.6-3.8,5.2-7.5,8-11.2c2.8-3.7,5.5-7.2,8.2-10.7
			C576,88.1,578.7,84.9,581.4,81.9z M570,112c0.1-1-0.2-1.5-0.8-1.5c-0.2,0-0.5,0.1-0.9,0.3c-0.4,0.2-0.8,0.4-1.2,0.7
			s-0.7,0.6-1,0.9s-0.4,0.7-0.4,1c0,0.3,0.1,0.5,0.4,0.7s0.5,0.2,0.8,0.2c0.7,0,1.3-0.2,1.9-0.7C569.3,113.2,569.7,112.6,570,112z"
			/>
	</g>
	<polygon points="632.7,89.5 624.5,64.1 599.7,55.7 620.5,40.8 619.7,14.3 640.7,30.6 665,22.5 657.2,47.5 673,69 647.2,68.2 	"/>
</g>
</svg>
